# xmcd
#
# Track frame offsets:
#	150
#	16332
#	35432
#	54481
#	69576
#	90746
#	116056
#	132209
#	147192
#	163968
#	182985
#	198597
#
# Disc length: 2906 seconds
#
# Revision: 1
# Processed by: cddbd v1.5.2PL0 Copyright (c) Steve Scherf et al.
# Submitted via: audiograbber 1.82.02
#
DISCID=af0b580c
DTITLE=Dolly Parton - Backwoods Barbie
DYEAR=2008
DGENRE=Country
TTITLE0=Better Get To Livin' 
TTITLE1=Made Of Stone 
TTITLE2=Drives Me Crazy 
TTITLE3=Backwoods Barbie 
TTITLE4=Jesus and Gravity 
TTITLE5=The  Lonesomes
TTITLE6=Tracks Of My Tears 
TTITLE7=Only Dreamin' 
TTITLE8=Somebody's Everything 
TTITLE9=I Will Forever Hate Roses 
TTITLE10=Cologne 
TTITLE11=Shinola
EXTD=Summited By Dream`Master  On Mircs Phazenet
EXTT0=
EXTT1=
EXTT2=
EXTT3=
EXTT4=
EXTT5=
EXTT6=
EXTT7=
EXTT8=
EXTT9=
EXTT10=
EXTT11=
PLAYORDER=
